# xmcd
#
# Track frame offsets: 
#        150
#        22754
#        50305
#        68192
#        94333
#        111820
#        132809
#        166883
#        192125
#        216535
#        242729
#        265647
#
# Disc length: 3999 seconds
#
# Revision: 0
# Processed by: cddbd v1.5.2PL0 Copyright (c) Steve Scherf et al.
# Submitted via: ExactAudioCopy v0.99pb5
#
DISCID=a00f9d0c
DTITLE=Albert Castiglia - Keepin' On
DYEAR=2010
DGENRE=Blues
TTITLE0=Cadillac Assembly Line
TTITLE1=Till I Fell In Love With You
TTITLE2=Mojo 305
TTITLE3=Keep On Keepin' On
TTITLE4=My Baby Is Now On My Mind
TTITLE5=Do You Love Me?
TTITLE6=Could Not Ask For More
TTITLE7=Sweet Southern Angel
TTITLE8=Murderin' Blues
TTITLE9=Goin' Upstairs
TTITLE10=Gettin' By
TTITLE11=Closing Time
EXTD=
EXTT0=
EXTT1=
EXTT2=
EXTT3=
EXTT4=
EXTT5=
EXTT6=
EXTT7=
EXTT8=
EXTT9=
EXTT10=
EXTT11=
PLAYORDER=
